<?xml version="1.0" encoding="UTF-8" standalone="no"?><svg xmlns="http://www.w3.org/2000/svg" xmlns:xlink="http://www.w3.org/1999/xlink" contentScriptType="application/ecmascript" contentStyleType="text/css" height="348px" preserveAspectRatio="none" style="width:651px;height:348px;" version="1.1" viewBox="0 0 651 348" width="651px" zoomAndPan="magnify"><defs><filter height="300%" id="f1g7dbo1fimkfk" width="300%" x="-1" y="-1"><feGaussianBlur result="blurOut" stdDeviation="2.0"/><feColorMatrix in="blurOut" result="blurOut2" type="matrix" values="0 0 0 0 0 0 0 0 0 0 0 0 0 0 0 0 0 0 .4 0"/><feOffset dx="4.0" dy="4.0" in="blurOut2" result="blurOut3"/><feBlend in="SourceGraphic" in2="blurOut3" mode="normal"/></filter></defs><g><rect fill="#F8F8F8" filter="url(#f1g7dbo1fimkfk)" height="36.2969" rx="12.5" ry="12.5" style="stroke: #383838; stroke-width: 1.5;" width="80" x="275" y="160.7422"/><text fill="#000000" font-family="sans-serif" font-size="14" lengthAdjust="spacingAndGlyphs" textLength="60" x="285" y="183.7373">Website</text><rect fill="#F8F8F8" filter="url(#f1g7dbo1fimkfk)" height="36.2969" rx="12.5" ry="12.5" style="stroke: #383838; stroke-width: 1.5;" width="82" x="405" y="76.2969"/><text fill="#000000" font-family="sans-serif" font-size="14" lengthAdjust="spacingAndGlyphs" textLength="62" x="415" y="99.292">Methods</text><rect fill="#F8F8F8" filter="url(#f1g7dbo1fimkfk)" height="36.2969" rx="12.5" ry="12.5" style="stroke: #383838; stroke-width: 1.5;" width="42" x="537" y="20"/><text fill="#000000" font-family="sans-serif" font-size="14" lengthAdjust="spacingAndGlyphs" textLength="22" x="547" y="42.9951">Git</text><path d="M487,94.4453 L497,94.4453 C512,94.4453 512,38.1484 527,38.1484 L537,38.1484 " fill="none" style="stroke: #383838; stroke-width: 1.0;"/><rect fill="#F8F8F8" filter="url(#f1g7dbo1fimkfk)" height="36.2969" rx="12.5" ry="12.5" style="stroke: #383838; stroke-width: 1.5;" width="81" x="537" y="76.2969"/><text fill="#000000" font-family="sans-serif" font-size="14" lengthAdjust="spacingAndGlyphs" textLength="61" x="547" y="99.292">AsciiDoc</text><path d="M487,94.4453 L497,94.4453 C512,94.4453 512,94.4453 527,94.4453 L537,94.4453 " fill="none" style="stroke: #383838; stroke-width: 1.0;"/><rect fill="#F8F8F8" filter="url(#f1g7dbo1fimkfk)" height="36.2969" rx="12.5" ry="12.5" style="stroke: #383838; stroke-width: 1.5;" width="69" x="537" y="132.5938"/><text fill="#000000" font-family="sans-serif" font-size="14" lengthAdjust="spacingAndGlyphs" textLength="49" x="547" y="155.5889">Antora</text><path d="M487,94.4453 L497,94.4453 C512,94.4453 512,150.7422 527,150.7422 L537,150.7422 " fill="none" style="stroke: #383838; stroke-width: 1.0;"/><path d="M355,178.8906 L365,178.8906 C380,178.8906 380,94.4453 395,94.4453 L405,94.4453 " fill="none" style="stroke: #383838; stroke-width: 1.0;"/><rect fill="#F8F8F8" filter="url(#f1g7dbo1fimkfk)" height="36.2969" rx="12.5" ry="12.5" style="stroke: #383838; stroke-width: 1.5;" width="80" x="405" y="245.1875"/><text fill="#000000" font-family="sans-serif" font-size="14" lengthAdjust="spacingAndGlyphs" textLength="60" x="415" y="268.1826">Website</text><rect fill="#F8F8F8" filter="url(#f1g7dbo1fimkfk)" height="36.2969" rx="12.5" ry="12.5" style="stroke: #383838; stroke-width: 1.5;" width="60" x="535" y="188.8906"/><text fill="#000000" font-family="sans-serif" font-size="14" lengthAdjust="spacingAndGlyphs" textLength="40" x="545" y="211.8857">CI/CD</text><path d="M485,263.3359 L495,263.3359 C510,263.3359 510,207.0391 525,207.0391 L535,207.0391 " fill="none" style="stroke: #383838; stroke-width: 1.0;"/><rect fill="#F8F8F8" filter="url(#f1g7dbo1fimkfk)" height="36.2969" rx="12.5" ry="12.5" style="stroke: #383838; stroke-width: 1.5;" width="78" x="535" y="245.1875"/><text fill="#000000" font-family="sans-serif" font-size="14" lengthAdjust="spacingAndGlyphs" textLength="58" x="545" y="268.1826">Pipeline</text><path d="M485,263.3359 L495,263.3359 C510,263.3359 510,263.3359 525,263.3359 L535,263.3359 " fill="none" style="stroke: #383838; stroke-width: 1.0;"/><rect fill="#F8F8F8" filter="url(#f1g7dbo1fimkfk)" height="36.2969" rx="12.5" ry="12.5" style="stroke: #383838; stroke-width: 1.5;" width="105" x="535" y="301.4844"/><text fill="#000000" font-family="sans-serif" font-size="14" lengthAdjust="spacingAndGlyphs" textLength="85" x="545" y="324.4795">Automation</text><path d="M485,263.3359 L495,263.3359 C510,263.3359 510,319.6328 525,319.6328 L535,319.6328 " fill="none" style="stroke: #383838; stroke-width: 1.0;"/><path d="M355,178.8906 L365,178.8906 C380,178.8906 380,263.3359 395,263.3359 L405,263.3359 " fill="none" style="stroke: #383838; stroke-width: 1.0;"/><rect fill="#F8F8F8" filter="url(#f1g7dbo1fimkfk)" height="36.2969" rx="12.5" ry="12.5" style="stroke: #383838; stroke-width: 1.5;" width="81" x="144" y="118.5195"/><text fill="#000000" font-family="sans-serif" font-size="14" lengthAdjust="spacingAndGlyphs" textLength="61" x="154" y="141.5146">Creative</text><path d="M275,178.8906 L265,178.8906 C250,178.8906 250,136.668 235,136.668 L225,136.668 " fill="none" style="stroke: #383838; stroke-width: 1.0;"/><rect fill="#F8F8F8" filter="url(#f1g7dbo1fimkfk)" height="36.2969" rx="12.5" ry="12.5" style="stroke: #383838; stroke-width: 1.5;" width="79" x="146" y="174.8164"/><text fill="#000000" font-family="sans-serif" font-size="14" lengthAdjust="spacingAndGlyphs" textLength="59" x="156" y="197.8115">Projects</text><rect fill="#F8F8F8" filter="url(#f1g7dbo1fimkfk)" height="36.2969" rx="12.5" ry="12.5" style="stroke: #383838; stroke-width: 1.5;" width="59" x="37" y="146.668"/><text fill="#000000" font-family="sans-serif" font-size="14" lengthAdjust="spacingAndGlyphs" textLength="39" x="47" y="169.6631">Goals</text><path d="M146,192.9648 L136,192.9648 C121,192.9648 121,164.8164 106,164.8164 L96,164.8164 " fill="none" style="stroke: #383838; stroke-width: 1.0;"/><rect fill="#F8F8F8" filter="url(#f1g7dbo1fimkfk)" height="36.2969" rx="12.5" ry="12.5" style="stroke: #383838; stroke-width: 1.5;" width="86" x="10" y="202.9648"/><text fill="#000000" font-family="sans-serif" font-size="14" lengthAdjust="spacingAndGlyphs" textLength="66" x="20" y="225.96">Overview</text><path d="M146,192.9648 L136,192.9648 C121,192.9648 121,221.1133 106,221.1133 L96,221.1133 " fill="none" style="stroke: #383838; stroke-width: 1.0;"/><path d="M275,178.8906 L265,178.8906 C250,178.8906 250,192.9648 235,192.9648 L225,192.9648 " fill="none" style="stroke: #383838; stroke-width: 1.0;"/><!--MD5=[54734605f79a375ae6a5ac2288210548]
@startmindmap
skinparam monochrome true
* Website
** Methods
*** Git
*** AsciiDoc
*** Antora
** Website
*** CI/CD
*** Pipeline
*** Automation

left

** Creative
** Projects
*** Goals
*** Overview
@endmindmap

PlantUML version 1.2020.11(Sat May 30 10:13:43 UTC 2020)
(GPL source distribution)
Java Runtime: Java(TM) SE Runtime Environment
JVM: Java HotSpot(TM) 64-Bit Server VM
Default Encoding: UTF-8
Language: en
Country: US
--></g></svg>