<?xml version="1.0" encoding="UTF-8" standalone="no"?><svg xmlns="http://www.w3.org/2000/svg" xmlns:xlink="http://www.w3.org/1999/xlink" contentScriptType="application/ecmascript" contentStyleType="text/css" height="292px" preserveAspectRatio="none" style="width:1055px;height:292px;" version="1.1" viewBox="0 0 1055 292" width="1055px" zoomAndPan="magnify"><defs><filter height="300%" id="f1dub2b5gp0srl" width="300%" x="-1" y="-1"><feGaussianBlur result="blurOut" stdDeviation="2.0"/><feColorMatrix in="blurOut" result="blurOut2" type="matrix" values="0 0 0 0 0 0 0 0 0 0 0 0 0 0 0 0 0 0 .4 0"/><feOffset dx="4.0" dy="4.0" in="blurOut2" result="blurOut3"/><feBlend in="SourceGraphic" in2="blurOut3" mode="normal"/></filter></defs><g><rect fill="#F8F8F8" filter="url(#f1dub2b5gp0srl)" height="36.2969" rx="12.5" ry="12.5" style="stroke: #383838; stroke-width: 1.5;" width="112" x="589" y="132.5938"/><text fill="#000000" font-family="sans-serif" font-size="14" lengthAdjust="spacingAndGlyphs" textLength="92" x="599" y="155.5889">Root of repo</text><rect fill="#F8F8F8" filter="url(#f1dub2b5gp0srl)" height="36.2969" rx="12.5" ry="12.5" style="stroke: #383838; stroke-width: 1.5;" width="140" x="751" y="48.1484"/><text fill="#000000" font-family="sans-serif" font-size="14" lengthAdjust="spacingAndGlyphs" textLength="120" x="761" y="71.1436">titles-enterprise</text><rect fill="#F8F8F8" filter="url(#f1dub2b5gp0srl)" height="36.2969" rx="12.5" ry="12.5" style="stroke: #383838; stroke-width: 1.5;" width="73" x="941" y="20"/><text fill="#000000" font-family="sans-serif" font-size="14" font-weight="bold" lengthAdjust="spacingAndGlyphs" textLength="53" x="951" y="42.9951">Title 1</text><path d="M891,66.2969 L901,66.2969 C916,66.2969 916,38.1484 931,38.1484 L941,38.1484 " fill="none" style="stroke: #383838; stroke-width: 1.0;"/><rect fill="#F8F8F8" filter="url(#f1dub2b5gp0srl)" height="36.2969" rx="12.5" ry="12.5" style="stroke: #383838; stroke-width: 1.5;" width="73" x="941" y="76.2969"/><text fill="#000000" font-family="sans-serif" font-size="14" font-weight="bold" lengthAdjust="spacingAndGlyphs" textLength="53" x="951" y="99.292">Title 2</text><path d="M891,66.2969 L901,66.2969 C916,66.2969 916,94.4453 931,94.4453 L941,94.4453 " fill="none" style="stroke: #383838; stroke-width: 1.0;"/><path d="M701,150.7422 L711,150.7422 C726,150.7422 726,66.2969 741,66.2969 L751,66.2969 " fill="none" style="stroke: #383838; stroke-width: 1.0;"/><rect fill="#F8F8F8" filter="url(#f1dub2b5gp0srl)" height="36.2969" rx="12.5" ry="12.5" style="stroke: #383838; stroke-width: 1.5;" width="78" x="751" y="132.5938"/><text fill="#000000" font-family="sans-serif" font-size="14" lengthAdjust="spacingAndGlyphs" textLength="58" x="761" y="155.5889">_images</text><rect fill="#F8F8F8" filter="url(#f1dub2b5gp0srl)" height="36.2969" rx="12.5" ry="12.5" style="stroke: #383838; stroke-width: 1.5;" width="104" x="879" y="132.5938"/><text fill="#000000" font-family="sans-serif" font-size="14" font-weight="bold" lengthAdjust="spacingAndGlyphs" textLength="84" x="889" y="155.5889">image.png</text><path d="M829,150.7422 L839,150.7422 C854,150.7422 854,150.7422 869,150.7422 L879,150.7422 " fill="none" style="stroke: #383838; stroke-width: 1.0;"/><path d="M701,150.7422 L711,150.7422 C726,150.7422 726,150.7422 741,150.7422 L751,150.7422 " fill="none" style="stroke: #383838; stroke-width: 1.0;"/><rect fill="#F8F8F8" filter="url(#f1dub2b5gp0srl)" height="36.2969" rx="12.5" ry="12.5" style="stroke: #383838; stroke-width: 1.5;" width="88" x="751" y="217.0391"/><text fill="#000000" font-family="sans-serif" font-size="14" lengthAdjust="spacingAndGlyphs" textLength="68" x="761" y="240.0342">_artifacts</text><rect fill="#F8F8F8" filter="url(#f1dub2b5gp0srl)" height="36.2969" rx="12.5" ry="12.5" style="stroke: #383838; stroke-width: 1.5;" width="155" x="889" y="188.8906"/><text fill="#000000" font-family="sans-serif" font-size="14" font-weight="bold" lengthAdjust="spacingAndGlyphs" textLength="135" x="899" y="211.8857">code-example.py</text><path d="M839,235.1875 L849,235.1875 C864,235.1875 864,207.0391 879,207.0391 L889,207.0391 " fill="none" style="stroke: #383838; stroke-width: 1.0;"/><rect fill="#F8F8F8" filter="url(#f1dub2b5gp0srl)" height="36.2969" rx="12.5" ry="12.5" style="stroke: #383838; stroke-width: 1.5;" width="140" x="889" y="245.1875"/><text fill="#000000" font-family="sans-serif" font-size="14" font-weight="bold" lengthAdjust="spacingAndGlyphs" textLength="120" x="899" y="268.1826">fragment.adoc</text><path d="M839,235.1875 L849,235.1875 C864,235.1875 864,263.3359 879,263.3359 L889,263.3359 " fill="none" style="stroke: #383838; stroke-width: 1.0;"/><path d="M701,150.7422 L711,150.7422 C726,150.7422 726,235.1875 741,235.1875 L751,235.1875 " fill="none" style="stroke: #383838; stroke-width: 1.0;"/><rect fill="#F8F8F8" filter="url(#f1dub2b5gp0srl)" height="36.2969" rx="12.5" ry="12.5" style="stroke: #383838; stroke-width: 1.5;" width="80" x="459" y="76.2969"/><text fill="#000000" font-family="sans-serif" font-size="14" lengthAdjust="spacingAndGlyphs" textLength="60" x="469" y="99.292">modules</text><rect fill="#F8F8F8" filter="url(#f1dub2b5gp0srl)" height="36.2969" rx="12.5" ry="12.5" style="stroke: #383838; stroke-width: 1.5;" width="108" x="301" y="76.2969"/><text fill="#000000" font-family="sans-serif" font-size="14" lengthAdjust="spacingAndGlyphs" textLength="88" x="311" y="99.292">&lt;Category&gt;</text><rect fill="#F8F8F8" filter="url(#f1dub2b5gp0srl)" height="36.2969" rx="12.5" ry="12.5" style="stroke: #383838; stroke-width: 1.5;" width="213" x="38" y="48.1484"/><text fill="#000000" font-family="sans-serif" font-size="14" font-weight="bold" lengthAdjust="spacingAndGlyphs" textLength="193" x="48" y="71.1436">proc_testing-stuff.adoc</text><path d="M301,94.4453 L291,94.4453 C276,94.4453 276,66.2969 261,66.2969 L251,66.2969 " fill="none" style="stroke: #383838; stroke-width: 1.0;"/><rect fill="#F8F8F8" filter="url(#f1dub2b5gp0srl)" height="36.2969" rx="12.5" ry="12.5" style="stroke: #383838; stroke-width: 1.5;" width="241" x="10" y="104.4453"/><text fill="#000000" font-family="sans-serif" font-size="14" font-weight="bold" lengthAdjust="spacingAndGlyphs" textLength="221" x="20" y="127.4404">con_introducing-stuff.adoc</text><path d="M301,94.4453 L291,94.4453 C276,94.4453 276,122.5938 261,122.5938 L251,122.5938 " fill="none" style="stroke: #383838; stroke-width: 1.0;"/><path d="M459,94.4453 L449,94.4453 C434,94.4453 434,94.4453 419,94.4453 L409,94.4453 " fill="none" style="stroke: #383838; stroke-width: 1.0;"/><path d="M589,150.7422 L579,150.7422 C564,150.7422 564,94.4453 549,94.4453 L539,94.4453 " fill="none" style="stroke: #383838; stroke-width: 1.0;"/><rect fill="#F8F8F8" filter="url(#f1dub2b5gp0srl)" height="36.2969" rx="12.5" ry="12.5" style="stroke: #383838; stroke-width: 1.5;" width="99" x="440" y="188.8906"/><text fill="#000000" font-family="sans-serif" font-size="14" lengthAdjust="spacingAndGlyphs" textLength="79" x="450" y="211.8857">assemblies</text><rect fill="#F8F8F8" filter="url(#f1dub2b5gp0srl)" height="36.2969" rx="12.5" ry="12.5" style="stroke: #383838; stroke-width: 1.5;" width="108" x="282" y="188.8906"/><text fill="#000000" font-family="sans-serif" font-size="14" lengthAdjust="spacingAndGlyphs" textLength="88" x="292" y="211.8857">&lt;Category&gt;</text><rect fill="#F8F8F8" filter="url(#f1dub2b5gp0srl)" height="36.2969" rx="12.5" ry="12.5" style="stroke: #383838; stroke-width: 1.5;" width="170" x="62" y="160.7422"/><text fill="#000000" font-family="sans-serif" font-size="14" font-weight="bold" lengthAdjust="spacingAndGlyphs" textLength="150" x="72" y="183.7373">making-stuff.adoc</text><path d="M282,207.0391 L272,207.0391 C257,207.0391 257,178.8906 242,178.8906 L232,178.8906 " fill="none" style="stroke: #383838; stroke-width: 1.0;"/><rect fill="#F8F8F8" filter="url(#f1dub2b5gp0srl)" height="36.2969" rx="12.5" ry="12.5" style="stroke: #383838; stroke-width: 1.5;" width="181" x="51" y="217.0391"/><text fill="#000000" font-family="sans-serif" font-size="14" font-weight="bold" lengthAdjust="spacingAndGlyphs" textLength="161" x="61" y="240.0342">breaking-stuff.adoc</text><path d="M282,207.0391 L272,207.0391 C257,207.0391 257,235.1875 242,235.1875 L232,235.1875 " fill="none" style="stroke: #383838; stroke-width: 1.0;"/><path d="M440,207.0391 L430,207.0391 C415,207.0391 415,207.0391 400,207.0391 L390,207.0391 " fill="none" style="stroke: #383838; stroke-width: 1.0;"/><path d="M589,150.7422 L579,150.7422 C564,150.7422 564,207.0391 549,207.0391 L539,207.0391 " fill="none" style="stroke: #383838; stroke-width: 1.0;"/><!--MD5=[54a4c960ff0eb987fb94884cf453ea71]
@startmindmap
skinparam monochrome true
* Root of repo
** titles-enterprise
*** **Title 1**
*** **Title 2**
** _images
*** **image.png**
** _artifacts
*** **code-example.py**
*** **fragment.adoc**

left

** modules
*** <Category>
**** **proc_testing-stuff.adoc**
**** **con_introducing-stuff.adoc**
** assemblies
*** <Category>
**** **making-stuff.adoc**
**** **breaking-stuff.adoc**

@endmindmap

PlantUML version 1.2020.11(Sat May 30 10:13:43 UTC 2020)
(GPL source distribution)
Java Runtime: Java(TM) SE Runtime Environment
JVM: Java HotSpot(TM) 64-Bit Server VM
Default Encoding: UTF-8
Language: en
Country: US
--></g></svg>